<mxfile host="Electron" modified="2024-05-24T23:37:09.625Z" agent="Mozilla/5.0 (Windows NT 10.0; Win64; x64) AppleWebKit/537.36 (KHTML, like Gecko) draw.io/22.1.11 Chrome/114.0.5735.289 Electron/25.9.8 Safari/537.36" etag="WkSnT7sUO-L1BWgV9nQF" version="22.1.11" type="device">
  <diagram name="第 1 页" id="efOjo2NSJv9ou_Kd9kAT">
    <mxGraphModel dx="794" dy="519" grid="1" gridSize="10" guides="1" tooltips="1" connect="1" arrows="1" fold="1" page="1" pageScale="1" pageWidth="827" pageHeight="1169" math="0" shadow="0">
      <root>
        <mxCell id="0" />
        <mxCell id="1" parent="0" />
        <mxCell id="ma8efBDJHLA7c4171GIG-1" value="34" style="rounded=0;whiteSpace=wrap;html=1;fillColor=none;" vertex="1" parent="1">
          <mxGeometry x="120" y="200" width="440" height="40" as="geometry" />
        </mxCell>
        <mxCell id="ma8efBDJHLA7c4171GIG-2" value="6" style="rounded=0;whiteSpace=wrap;html=1;fillColor=none;" vertex="1" parent="1">
          <mxGeometry x="120" y="200" width="40" height="40" as="geometry" />
        </mxCell>
        <mxCell id="ma8efBDJHLA7c4171GIG-3" value="45" style="rounded=0;whiteSpace=wrap;html=1;fillColor=none;" vertex="1" parent="1">
          <mxGeometry x="160" y="200" width="40" height="40" as="geometry" />
        </mxCell>
        <mxCell id="ma8efBDJHLA7c4171GIG-4" value="2" style="rounded=0;whiteSpace=wrap;html=1;fillColor=none;" vertex="1" parent="1">
          <mxGeometry x="200" y="200" width="40" height="40" as="geometry" />
        </mxCell>
        <mxCell id="ma8efBDJHLA7c4171GIG-5" value="12" style="rounded=0;whiteSpace=wrap;html=1;fillColor=none;" vertex="1" parent="1">
          <mxGeometry x="240" y="200" width="40" height="40" as="geometry" />
        </mxCell>
        <mxCell id="ma8efBDJHLA7c4171GIG-6" value="87" style="rounded=0;whiteSpace=wrap;html=1;fillColor=none;" vertex="1" parent="1">
          <mxGeometry x="280" y="200" width="40" height="40" as="geometry" />
        </mxCell>
        <mxCell id="ma8efBDJHLA7c4171GIG-7" value="90" style="rounded=0;whiteSpace=wrap;html=1;fillColor=none;" vertex="1" parent="1">
          <mxGeometry x="360" y="200" width="40" height="40" as="geometry" />
        </mxCell>
        <mxCell id="ma8efBDJHLA7c4171GIG-8" value="23" style="rounded=0;whiteSpace=wrap;html=1;fillColor=none;" vertex="1" parent="1">
          <mxGeometry x="440" y="200" width="40" height="40" as="geometry" />
        </mxCell>
        <mxCell id="ma8efBDJHLA7c4171GIG-9" value="65" style="rounded=0;whiteSpace=wrap;html=1;fillColor=none;" vertex="1" parent="1">
          <mxGeometry x="520" y="200" width="40" height="40" as="geometry" />
        </mxCell>
        <mxCell id="ma8efBDJHLA7c4171GIG-10" value="24" style="rounded=0;whiteSpace=wrap;html=1;fillColor=none;" vertex="1" parent="1">
          <mxGeometry x="400" y="200" width="40" height="40" as="geometry" />
        </mxCell>
        <mxCell id="ma8efBDJHLA7c4171GIG-11" value="11" style="rounded=0;whiteSpace=wrap;html=1;fillColor=none;" vertex="1" parent="1">
          <mxGeometry x="480" y="200" width="40" height="40" as="geometry" />
        </mxCell>
        <mxCell id="ma8efBDJHLA7c4171GIG-14" style="edgeStyle=orthogonalEdgeStyle;rounded=0;orthogonalLoop=1;jettySize=auto;html=1;entryX=0.5;entryY=1;entryDx=0;entryDy=0;" edge="1" parent="1" target="ma8efBDJHLA7c4171GIG-2">
          <mxGeometry relative="1" as="geometry">
            <mxPoint x="140" y="261" as="sourcePoint" />
            <mxPoint x="180" y="268" as="targetPoint" />
          </mxGeometry>
        </mxCell>
        <mxCell id="ma8efBDJHLA7c4171GIG-15" value="&lt;font style=&quot;font-size: 18px;&quot;&gt;j&lt;/font&gt;" style="text;html=1;strokeColor=none;fillColor=none;align=center;verticalAlign=middle;whiteSpace=wrap;rounded=0;" vertex="1" parent="1">
          <mxGeometry x="100" y="240" width="60" height="30" as="geometry" />
        </mxCell>
        <mxCell id="ma8efBDJHLA7c4171GIG-16" value="34" style="rounded=0;whiteSpace=wrap;html=1;fillColor=none;" vertex="1" parent="1">
          <mxGeometry x="120" y="280" width="440" height="40" as="geometry" />
        </mxCell>
        <mxCell id="ma8efBDJHLA7c4171GIG-17" value="6" style="rounded=0;whiteSpace=wrap;html=1;fillColor=none;" vertex="1" parent="1">
          <mxGeometry x="120" y="280" width="40" height="40" as="geometry" />
        </mxCell>
        <mxCell id="ma8efBDJHLA7c4171GIG-18" value="2" style="rounded=0;whiteSpace=wrap;html=1;fillColor=none;" vertex="1" parent="1">
          <mxGeometry x="160" y="280" width="40" height="40" as="geometry" />
        </mxCell>
        <mxCell id="ma8efBDJHLA7c4171GIG-19" value="45" style="rounded=0;whiteSpace=wrap;html=1;fillColor=none;" vertex="1" parent="1">
          <mxGeometry x="200" y="280" width="40" height="40" as="geometry" />
        </mxCell>
        <mxCell id="ma8efBDJHLA7c4171GIG-20" value="12" style="rounded=0;whiteSpace=wrap;html=1;fillColor=none;" vertex="1" parent="1">
          <mxGeometry x="240" y="280" width="40" height="40" as="geometry" />
        </mxCell>
        <mxCell id="ma8efBDJHLA7c4171GIG-21" value="87" style="rounded=0;whiteSpace=wrap;html=1;fillColor=none;" vertex="1" parent="1">
          <mxGeometry x="280" y="280" width="40" height="40" as="geometry" />
        </mxCell>
        <mxCell id="ma8efBDJHLA7c4171GIG-22" value="90" style="rounded=0;whiteSpace=wrap;html=1;fillColor=none;" vertex="1" parent="1">
          <mxGeometry x="360" y="280" width="40" height="40" as="geometry" />
        </mxCell>
        <mxCell id="ma8efBDJHLA7c4171GIG-23" value="23" style="rounded=0;whiteSpace=wrap;html=1;fillColor=none;" vertex="1" parent="1">
          <mxGeometry x="440" y="280" width="40" height="40" as="geometry" />
        </mxCell>
        <mxCell id="ma8efBDJHLA7c4171GIG-24" value="65" style="rounded=0;whiteSpace=wrap;html=1;fillColor=none;" vertex="1" parent="1">
          <mxGeometry x="520" y="280" width="40" height="40" as="geometry" />
        </mxCell>
        <mxCell id="ma8efBDJHLA7c4171GIG-25" value="24" style="rounded=0;whiteSpace=wrap;html=1;fillColor=none;" vertex="1" parent="1">
          <mxGeometry x="400" y="280" width="40" height="40" as="geometry" />
        </mxCell>
        <mxCell id="ma8efBDJHLA7c4171GIG-26" value="11" style="rounded=0;whiteSpace=wrap;html=1;fillColor=none;" vertex="1" parent="1">
          <mxGeometry x="480" y="280" width="40" height="40" as="geometry" />
        </mxCell>
        <mxCell id="ma8efBDJHLA7c4171GIG-29" value="" style="endArrow=classic;html=1;rounded=0;entryX=0.5;entryY=1;entryDx=0;entryDy=0;" edge="1" parent="1" target="ma8efBDJHLA7c4171GIG-18">
          <mxGeometry width="50" height="50" relative="1" as="geometry">
            <mxPoint x="180" y="339" as="sourcePoint" />
            <mxPoint x="430" y="220" as="targetPoint" />
          </mxGeometry>
        </mxCell>
        <mxCell id="ma8efBDJHLA7c4171GIG-30" value="&lt;font style=&quot;font-size: 18px;&quot;&gt;j&lt;/font&gt;" style="text;html=1;strokeColor=none;fillColor=none;align=center;verticalAlign=middle;whiteSpace=wrap;rounded=0;" vertex="1" parent="1">
          <mxGeometry x="160" y="320" width="20" height="30" as="geometry" />
        </mxCell>
        <mxCell id="ma8efBDJHLA7c4171GIG-36" value="" style="curved=1;endArrow=classic;html=1;rounded=0;exitX=0.5;exitY=1;exitDx=0;exitDy=0;entryX=0.5;entryY=1;entryDx=0;entryDy=0;" edge="1" parent="1" source="ma8efBDJHLA7c4171GIG-18" target="ma8efBDJHLA7c4171GIG-19">
          <mxGeometry width="50" height="50" relative="1" as="geometry">
            <mxPoint x="270" y="340" as="sourcePoint" />
            <mxPoint x="430" y="250" as="targetPoint" />
            <Array as="points">
              <mxPoint x="190" y="340" />
              <mxPoint x="210" y="340" />
            </Array>
          </mxGeometry>
        </mxCell>
        <mxCell id="ma8efBDJHLA7c4171GIG-38" value="34" style="rounded=0;whiteSpace=wrap;html=1;fillColor=none;" vertex="1" parent="1">
          <mxGeometry x="120" y="360" width="440" height="40" as="geometry" />
        </mxCell>
        <mxCell id="ma8efBDJHLA7c4171GIG-39" value="6" style="rounded=0;whiteSpace=wrap;html=1;fillColor=none;" vertex="1" parent="1">
          <mxGeometry x="120" y="360" width="40" height="40" as="geometry" />
        </mxCell>
        <mxCell id="ma8efBDJHLA7c4171GIG-40" value="2" style="rounded=0;whiteSpace=wrap;html=1;fillColor=none;" vertex="1" parent="1">
          <mxGeometry x="160" y="360" width="40" height="40" as="geometry" />
        </mxCell>
        <mxCell id="ma8efBDJHLA7c4171GIG-41" value="12" style="rounded=0;whiteSpace=wrap;html=1;fillColor=none;" vertex="1" parent="1">
          <mxGeometry x="200" y="360" width="40" height="40" as="geometry" />
        </mxCell>
        <mxCell id="ma8efBDJHLA7c4171GIG-42" value="45" style="rounded=0;whiteSpace=wrap;html=1;fillColor=none;" vertex="1" parent="1">
          <mxGeometry x="240" y="360" width="40" height="40" as="geometry" />
        </mxCell>
        <mxCell id="ma8efBDJHLA7c4171GIG-43" value="87" style="rounded=0;whiteSpace=wrap;html=1;fillColor=none;" vertex="1" parent="1">
          <mxGeometry x="280" y="360" width="40" height="40" as="geometry" />
        </mxCell>
        <mxCell id="ma8efBDJHLA7c4171GIG-44" value="90" style="rounded=0;whiteSpace=wrap;html=1;fillColor=none;" vertex="1" parent="1">
          <mxGeometry x="360" y="360" width="40" height="40" as="geometry" />
        </mxCell>
        <mxCell id="ma8efBDJHLA7c4171GIG-45" value="23" style="rounded=0;whiteSpace=wrap;html=1;fillColor=none;" vertex="1" parent="1">
          <mxGeometry x="440" y="360" width="40" height="40" as="geometry" />
        </mxCell>
        <mxCell id="ma8efBDJHLA7c4171GIG-46" value="65" style="rounded=0;whiteSpace=wrap;html=1;fillColor=none;" vertex="1" parent="1">
          <mxGeometry x="520" y="360" width="40" height="40" as="geometry" />
        </mxCell>
        <mxCell id="ma8efBDJHLA7c4171GIG-47" value="24" style="rounded=0;whiteSpace=wrap;html=1;fillColor=none;" vertex="1" parent="1">
          <mxGeometry x="400" y="360" width="40" height="40" as="geometry" />
        </mxCell>
        <mxCell id="ma8efBDJHLA7c4171GIG-48" value="11" style="rounded=0;whiteSpace=wrap;html=1;fillColor=none;" vertex="1" parent="1">
          <mxGeometry x="480" y="360" width="40" height="40" as="geometry" />
        </mxCell>
        <mxCell id="ma8efBDJHLA7c4171GIG-49" value="" style="endArrow=classic;html=1;rounded=0;entryX=1;entryY=0;entryDx=0;entryDy=0;exitX=1;exitY=0.5;exitDx=0;exitDy=0;" edge="1" parent="1" target="ma8efBDJHLA7c4171GIG-50" source="ma8efBDJHLA7c4171GIG-50">
          <mxGeometry width="50" height="50" relative="1" as="geometry">
            <mxPoint x="180" y="419" as="sourcePoint" />
            <mxPoint x="430" y="300" as="targetPoint" />
          </mxGeometry>
        </mxCell>
        <mxCell id="ma8efBDJHLA7c4171GIG-50" value="&lt;font style=&quot;font-size: 18px;&quot;&gt;j&lt;/font&gt;" style="text;html=1;strokeColor=none;fillColor=none;align=center;verticalAlign=middle;whiteSpace=wrap;rounded=0;" vertex="1" parent="1">
          <mxGeometry x="200" y="400" width="20" height="30" as="geometry" />
        </mxCell>
        <mxCell id="ma8efBDJHLA7c4171GIG-51" value="" style="curved=1;endArrow=classic;html=1;rounded=0;exitX=0.5;exitY=1;exitDx=0;exitDy=0;entryX=0.5;entryY=1;entryDx=0;entryDy=0;" edge="1" parent="1" source="ma8efBDJHLA7c4171GIG-41" target="ma8efBDJHLA7c4171GIG-42">
          <mxGeometry width="50" height="50" relative="1" as="geometry">
            <mxPoint x="270" y="420" as="sourcePoint" />
            <mxPoint x="430" y="330" as="targetPoint" />
            <Array as="points">
              <mxPoint x="230" y="420" />
              <mxPoint x="250" y="420" />
            </Array>
          </mxGeometry>
        </mxCell>
        <mxCell id="ma8efBDJHLA7c4171GIG-52" value="87" style="rounded=0;whiteSpace=wrap;html=1;fillColor=none;" vertex="1" parent="1">
          <mxGeometry x="120" y="440" width="440" height="40" as="geometry" />
        </mxCell>
        <mxCell id="ma8efBDJHLA7c4171GIG-53" value="6" style="rounded=0;whiteSpace=wrap;html=1;fillColor=none;" vertex="1" parent="1">
          <mxGeometry x="120" y="440" width="40" height="40" as="geometry" />
        </mxCell>
        <mxCell id="ma8efBDJHLA7c4171GIG-54" value="2" style="rounded=0;whiteSpace=wrap;html=1;fillColor=none;" vertex="1" parent="1">
          <mxGeometry x="160" y="440" width="40" height="40" as="geometry" />
        </mxCell>
        <mxCell id="ma8efBDJHLA7c4171GIG-55" value="12" style="rounded=0;whiteSpace=wrap;html=1;fillColor=none;" vertex="1" parent="1">
          <mxGeometry x="200" y="440" width="40" height="40" as="geometry" />
        </mxCell>
        <mxCell id="ma8efBDJHLA7c4171GIG-56" value="45" style="rounded=0;whiteSpace=wrap;html=1;fillColor=none;" vertex="1" parent="1">
          <mxGeometry x="240" y="440" width="40" height="40" as="geometry" />
        </mxCell>
        <mxCell id="ma8efBDJHLA7c4171GIG-57" value="34" style="rounded=0;whiteSpace=wrap;html=1;fillColor=none;" vertex="1" parent="1">
          <mxGeometry x="280" y="440" width="40" height="40" as="geometry" />
        </mxCell>
        <mxCell id="ma8efBDJHLA7c4171GIG-58" value="90" style="rounded=0;whiteSpace=wrap;html=1;fillColor=none;" vertex="1" parent="1">
          <mxGeometry x="360" y="440" width="40" height="40" as="geometry" />
        </mxCell>
        <mxCell id="ma8efBDJHLA7c4171GIG-59" value="23" style="rounded=0;whiteSpace=wrap;html=1;fillColor=none;" vertex="1" parent="1">
          <mxGeometry x="440" y="440" width="40" height="40" as="geometry" />
        </mxCell>
        <mxCell id="ma8efBDJHLA7c4171GIG-60" value="65" style="rounded=0;whiteSpace=wrap;html=1;fillColor=none;" vertex="1" parent="1">
          <mxGeometry x="520" y="440" width="40" height="40" as="geometry" />
        </mxCell>
        <mxCell id="ma8efBDJHLA7c4171GIG-61" value="24" style="rounded=0;whiteSpace=wrap;html=1;fillColor=none;" vertex="1" parent="1">
          <mxGeometry x="400" y="440" width="40" height="40" as="geometry" />
        </mxCell>
        <mxCell id="ma8efBDJHLA7c4171GIG-62" value="11" style="rounded=0;whiteSpace=wrap;html=1;fillColor=none;" vertex="1" parent="1">
          <mxGeometry x="480" y="440" width="40" height="40" as="geometry" />
        </mxCell>
        <mxCell id="ma8efBDJHLA7c4171GIG-63" value="" style="endArrow=classic;html=1;rounded=0;entryX=1;entryY=0;entryDx=0;entryDy=0;exitX=1;exitY=0.5;exitDx=0;exitDy=0;" edge="1" parent="1" source="ma8efBDJHLA7c4171GIG-64" target="ma8efBDJHLA7c4171GIG-64">
          <mxGeometry width="50" height="50" relative="1" as="geometry">
            <mxPoint x="180" y="499" as="sourcePoint" />
            <mxPoint x="430" y="380" as="targetPoint" />
          </mxGeometry>
        </mxCell>
        <mxCell id="ma8efBDJHLA7c4171GIG-64" value="&lt;font style=&quot;font-size: 18px;&quot;&gt;j&lt;/font&gt;" style="text;html=1;strokeColor=none;fillColor=none;align=center;verticalAlign=middle;whiteSpace=wrap;rounded=0;" vertex="1" parent="1">
          <mxGeometry x="280" y="480" width="20" height="30" as="geometry" />
        </mxCell>
        <mxCell id="ma8efBDJHLA7c4171GIG-65" value="" style="curved=1;endArrow=classic;html=1;rounded=0;exitX=0.5;exitY=1;exitDx=0;exitDy=0;entryX=0.5;entryY=1;entryDx=0;entryDy=0;" edge="1" parent="1" source="ma8efBDJHLA7c4171GIG-57" target="ma8efBDJHLA7c4171GIG-52">
          <mxGeometry width="50" height="50" relative="1" as="geometry">
            <mxPoint x="270" y="500" as="sourcePoint" />
            <mxPoint x="430" y="410" as="targetPoint" />
            <Array as="points">
              <mxPoint x="310" y="500" />
              <mxPoint x="330" y="500" />
            </Array>
          </mxGeometry>
        </mxCell>
        <mxCell id="ma8efBDJHLA7c4171GIG-67" value="87" style="rounded=0;whiteSpace=wrap;html=1;fillColor=none;" vertex="1" parent="1">
          <mxGeometry x="120" y="520" width="440" height="40" as="geometry" />
        </mxCell>
        <mxCell id="ma8efBDJHLA7c4171GIG-68" value="6" style="rounded=0;whiteSpace=wrap;html=1;fillColor=none;" vertex="1" parent="1">
          <mxGeometry x="120" y="520" width="40" height="40" as="geometry" />
        </mxCell>
        <mxCell id="ma8efBDJHLA7c4171GIG-69" value="2" style="rounded=0;whiteSpace=wrap;html=1;fillColor=none;" vertex="1" parent="1">
          <mxGeometry x="160" y="520" width="40" height="40" as="geometry" />
        </mxCell>
        <mxCell id="ma8efBDJHLA7c4171GIG-70" value="12" style="rounded=0;whiteSpace=wrap;html=1;fillColor=none;" vertex="1" parent="1">
          <mxGeometry x="200" y="520" width="40" height="40" as="geometry" />
        </mxCell>
        <mxCell id="ma8efBDJHLA7c4171GIG-71" value="45" style="rounded=0;whiteSpace=wrap;html=1;fillColor=none;" vertex="1" parent="1">
          <mxGeometry x="240" y="520" width="40" height="40" as="geometry" />
        </mxCell>
        <mxCell id="ma8efBDJHLA7c4171GIG-72" value="34" style="rounded=0;whiteSpace=wrap;html=1;fillColor=none;" vertex="1" parent="1">
          <mxGeometry x="280" y="520" width="40" height="40" as="geometry" />
        </mxCell>
        <mxCell id="ma8efBDJHLA7c4171GIG-73" value="24" style="rounded=0;whiteSpace=wrap;html=1;fillColor=none;" vertex="1" parent="1">
          <mxGeometry x="360" y="520" width="40" height="40" as="geometry" />
        </mxCell>
        <mxCell id="ma8efBDJHLA7c4171GIG-74" value="23" style="rounded=0;whiteSpace=wrap;html=1;fillColor=none;" vertex="1" parent="1">
          <mxGeometry x="440" y="520" width="40" height="40" as="geometry" />
        </mxCell>
        <mxCell id="ma8efBDJHLA7c4171GIG-75" value="65" style="rounded=0;whiteSpace=wrap;html=1;fillColor=none;" vertex="1" parent="1">
          <mxGeometry x="520" y="520" width="40" height="40" as="geometry" />
        </mxCell>
        <mxCell id="ma8efBDJHLA7c4171GIG-76" value="90" style="rounded=0;whiteSpace=wrap;html=1;fillColor=none;" vertex="1" parent="1">
          <mxGeometry x="400" y="520" width="40" height="40" as="geometry" />
        </mxCell>
        <mxCell id="ma8efBDJHLA7c4171GIG-77" value="11" style="rounded=0;whiteSpace=wrap;html=1;fillColor=none;" vertex="1" parent="1">
          <mxGeometry x="480" y="520" width="40" height="40" as="geometry" />
        </mxCell>
        <mxCell id="ma8efBDJHLA7c4171GIG-78" value="" style="endArrow=classic;html=1;rounded=0;entryX=1;entryY=0;entryDx=0;entryDy=0;exitX=1;exitY=0.5;exitDx=0;exitDy=0;" edge="1" parent="1" source="ma8efBDJHLA7c4171GIG-79" target="ma8efBDJHLA7c4171GIG-79">
          <mxGeometry width="50" height="50" relative="1" as="geometry">
            <mxPoint x="180" y="579" as="sourcePoint" />
            <mxPoint x="430" y="460" as="targetPoint" />
          </mxGeometry>
        </mxCell>
        <mxCell id="ma8efBDJHLA7c4171GIG-79" value="&lt;font style=&quot;font-size: 18px;&quot;&gt;j&lt;/font&gt;" style="text;html=1;strokeColor=none;fillColor=none;align=center;verticalAlign=middle;whiteSpace=wrap;rounded=0;" vertex="1" parent="1">
          <mxGeometry x="360" y="560" width="20" height="30" as="geometry" />
        </mxCell>
        <mxCell id="ma8efBDJHLA7c4171GIG-80" value="" style="curved=1;endArrow=classic;html=1;rounded=0;exitX=1;exitY=0;exitDx=0;exitDy=0;entryX=0.5;entryY=1;entryDx=0;entryDy=0;" edge="1" parent="1" source="ma8efBDJHLA7c4171GIG-79" target="ma8efBDJHLA7c4171GIG-76">
          <mxGeometry width="50" height="50" relative="1" as="geometry">
            <mxPoint x="270" y="580" as="sourcePoint" />
            <mxPoint x="430" y="490" as="targetPoint" />
            <Array as="points">
              <mxPoint x="390" y="580" />
              <mxPoint x="410" y="580" />
            </Array>
          </mxGeometry>
        </mxCell>
        <mxCell id="ma8efBDJHLA7c4171GIG-81" value="87" style="rounded=0;whiteSpace=wrap;html=1;fillColor=none;" vertex="1" parent="1">
          <mxGeometry x="120" y="600" width="440" height="40" as="geometry" />
        </mxCell>
        <mxCell id="ma8efBDJHLA7c4171GIG-82" value="6" style="rounded=0;whiteSpace=wrap;html=1;fillColor=none;" vertex="1" parent="1">
          <mxGeometry x="120" y="600" width="40" height="40" as="geometry" />
        </mxCell>
        <mxCell id="ma8efBDJHLA7c4171GIG-83" value="2" style="rounded=0;whiteSpace=wrap;html=1;fillColor=none;" vertex="1" parent="1">
          <mxGeometry x="160" y="600" width="40" height="40" as="geometry" />
        </mxCell>
        <mxCell id="ma8efBDJHLA7c4171GIG-84" value="12" style="rounded=0;whiteSpace=wrap;html=1;fillColor=none;" vertex="1" parent="1">
          <mxGeometry x="200" y="600" width="40" height="40" as="geometry" />
        </mxCell>
        <mxCell id="ma8efBDJHLA7c4171GIG-85" value="45" style="rounded=0;whiteSpace=wrap;html=1;fillColor=none;" vertex="1" parent="1">
          <mxGeometry x="240" y="600" width="40" height="40" as="geometry" />
        </mxCell>
        <mxCell id="ma8efBDJHLA7c4171GIG-86" value="34" style="rounded=0;whiteSpace=wrap;html=1;fillColor=none;" vertex="1" parent="1">
          <mxGeometry x="280" y="600" width="40" height="40" as="geometry" />
        </mxCell>
        <mxCell id="ma8efBDJHLA7c4171GIG-87" value="24" style="rounded=0;whiteSpace=wrap;html=1;fillColor=none;" vertex="1" parent="1">
          <mxGeometry x="360" y="600" width="40" height="40" as="geometry" />
        </mxCell>
        <mxCell id="ma8efBDJHLA7c4171GIG-88" value="90" style="rounded=0;whiteSpace=wrap;html=1;fillColor=none;" vertex="1" parent="1">
          <mxGeometry x="440" y="600" width="40" height="40" as="geometry" />
        </mxCell>
        <mxCell id="ma8efBDJHLA7c4171GIG-89" value="65" style="rounded=0;whiteSpace=wrap;html=1;fillColor=none;" vertex="1" parent="1">
          <mxGeometry x="520" y="600" width="40" height="40" as="geometry" />
        </mxCell>
        <mxCell id="ma8efBDJHLA7c4171GIG-90" value="23" style="rounded=0;whiteSpace=wrap;html=1;fillColor=none;" vertex="1" parent="1">
          <mxGeometry x="400" y="600" width="40" height="40" as="geometry" />
        </mxCell>
        <mxCell id="ma8efBDJHLA7c4171GIG-91" value="11" style="rounded=0;whiteSpace=wrap;html=1;fillColor=none;" vertex="1" parent="1">
          <mxGeometry x="480" y="600" width="40" height="40" as="geometry" />
        </mxCell>
        <mxCell id="ma8efBDJHLA7c4171GIG-92" value="" style="endArrow=classic;html=1;rounded=0;entryX=1;entryY=0;entryDx=0;entryDy=0;exitX=1;exitY=0.5;exitDx=0;exitDy=0;" edge="1" parent="1" source="ma8efBDJHLA7c4171GIG-93" target="ma8efBDJHLA7c4171GIG-93">
          <mxGeometry width="50" height="50" relative="1" as="geometry">
            <mxPoint x="180" y="659" as="sourcePoint" />
            <mxPoint x="430" y="540" as="targetPoint" />
          </mxGeometry>
        </mxCell>
        <mxCell id="ma8efBDJHLA7c4171GIG-93" value="&lt;font style=&quot;font-size: 18px;&quot;&gt;j&lt;/font&gt;" style="text;html=1;strokeColor=none;fillColor=none;align=center;verticalAlign=middle;whiteSpace=wrap;rounded=0;" vertex="1" parent="1">
          <mxGeometry x="400" y="640" width="20" height="30" as="geometry" />
        </mxCell>
        <mxCell id="ma8efBDJHLA7c4171GIG-94" value="" style="curved=1;endArrow=classic;html=1;rounded=0;exitX=0.5;exitY=1;exitDx=0;exitDy=0;entryX=0.5;entryY=1;entryDx=0;entryDy=0;" edge="1" parent="1" source="ma8efBDJHLA7c4171GIG-90" target="ma8efBDJHLA7c4171GIG-88">
          <mxGeometry width="50" height="50" relative="1" as="geometry">
            <mxPoint x="270" y="660" as="sourcePoint" />
            <mxPoint x="430" y="570" as="targetPoint" />
            <Array as="points">
              <mxPoint x="430" y="660" />
              <mxPoint x="450" y="660" />
            </Array>
          </mxGeometry>
        </mxCell>
        <mxCell id="ma8efBDJHLA7c4171GIG-98" value="" style="group" vertex="1" connectable="0" parent="1">
          <mxGeometry x="440" y="720" width="50" height="30" as="geometry" />
        </mxCell>
        <mxCell id="ma8efBDJHLA7c4171GIG-95" value="" style="endArrow=classic;html=1;rounded=0;entryX=1;entryY=0;entryDx=0;entryDy=0;exitX=1;exitY=0.5;exitDx=0;exitDy=0;" edge="1" parent="ma8efBDJHLA7c4171GIG-98" source="ma8efBDJHLA7c4171GIG-96" target="ma8efBDJHLA7c4171GIG-96">
          <mxGeometry width="50" height="50" relative="1" as="geometry">
            <mxPoint x="-220" y="19" as="sourcePoint" />
            <mxPoint x="30" y="-100" as="targetPoint" />
          </mxGeometry>
        </mxCell>
        <mxCell id="ma8efBDJHLA7c4171GIG-96" value="&lt;font style=&quot;font-size: 18px;&quot;&gt;j&lt;/font&gt;" style="text;html=1;strokeColor=none;fillColor=none;align=center;verticalAlign=middle;whiteSpace=wrap;rounded=0;" vertex="1" parent="ma8efBDJHLA7c4171GIG-98">
          <mxGeometry width="20" height="30" as="geometry" />
        </mxCell>
        <mxCell id="ma8efBDJHLA7c4171GIG-97" value="" style="curved=1;endArrow=classic;html=1;rounded=0;exitX=0.5;exitY=1;exitDx=0;exitDy=0;entryX=0.5;entryY=1;entryDx=0;entryDy=0;" edge="1" parent="ma8efBDJHLA7c4171GIG-98">
          <mxGeometry width="50" height="50" relative="1" as="geometry">
            <mxPoint x="20" as="sourcePoint" />
            <mxPoint x="60" as="targetPoint" />
            <Array as="points">
              <mxPoint x="30" y="20" />
              <mxPoint x="50" y="20" />
            </Array>
          </mxGeometry>
        </mxCell>
        <mxCell id="ma8efBDJHLA7c4171GIG-99" value="87" style="rounded=0;whiteSpace=wrap;html=1;fillColor=none;" vertex="1" parent="1">
          <mxGeometry x="120" y="680" width="440" height="40" as="geometry" />
        </mxCell>
        <mxCell id="ma8efBDJHLA7c4171GIG-100" value="6" style="rounded=0;whiteSpace=wrap;html=1;fillColor=none;" vertex="1" parent="1">
          <mxGeometry x="120" y="680" width="40" height="40" as="geometry" />
        </mxCell>
        <mxCell id="ma8efBDJHLA7c4171GIG-101" value="2" style="rounded=0;whiteSpace=wrap;html=1;fillColor=none;" vertex="1" parent="1">
          <mxGeometry x="160" y="680" width="40" height="40" as="geometry" />
        </mxCell>
        <mxCell id="ma8efBDJHLA7c4171GIG-102" value="12" style="rounded=0;whiteSpace=wrap;html=1;fillColor=none;" vertex="1" parent="1">
          <mxGeometry x="200" y="680" width="40" height="40" as="geometry" />
        </mxCell>
        <mxCell id="ma8efBDJHLA7c4171GIG-103" value="45" style="rounded=0;whiteSpace=wrap;html=1;fillColor=none;" vertex="1" parent="1">
          <mxGeometry x="240" y="680" width="40" height="40" as="geometry" />
        </mxCell>
        <mxCell id="ma8efBDJHLA7c4171GIG-104" value="34" style="rounded=0;whiteSpace=wrap;html=1;fillColor=none;" vertex="1" parent="1">
          <mxGeometry x="280" y="680" width="40" height="40" as="geometry" />
        </mxCell>
        <mxCell id="ma8efBDJHLA7c4171GIG-105" value="24" style="rounded=0;whiteSpace=wrap;html=1;fillColor=none;" vertex="1" parent="1">
          <mxGeometry x="360" y="680" width="40" height="40" as="geometry" />
        </mxCell>
        <mxCell id="ma8efBDJHLA7c4171GIG-106" value="11" style="rounded=0;whiteSpace=wrap;html=1;fillColor=none;" vertex="1" parent="1">
          <mxGeometry x="440" y="680" width="40" height="40" as="geometry" />
        </mxCell>
        <mxCell id="ma8efBDJHLA7c4171GIG-107" value="65" style="rounded=0;whiteSpace=wrap;html=1;fillColor=none;" vertex="1" parent="1">
          <mxGeometry x="520" y="680" width="40" height="40" as="geometry" />
        </mxCell>
        <mxCell id="ma8efBDJHLA7c4171GIG-108" value="23" style="rounded=0;whiteSpace=wrap;html=1;fillColor=none;" vertex="1" parent="1">
          <mxGeometry x="400" y="680" width="40" height="40" as="geometry" />
        </mxCell>
        <mxCell id="ma8efBDJHLA7c4171GIG-109" value="90" style="rounded=0;whiteSpace=wrap;html=1;fillColor=none;" vertex="1" parent="1">
          <mxGeometry x="480" y="680" width="40" height="40" as="geometry" />
        </mxCell>
        <mxCell id="ma8efBDJHLA7c4171GIG-113" value="" style="group" vertex="1" connectable="0" parent="1">
          <mxGeometry x="480" y="800" width="50" height="30" as="geometry" />
        </mxCell>
        <mxCell id="ma8efBDJHLA7c4171GIG-114" value="" style="endArrow=classic;html=1;rounded=0;entryX=1;entryY=0;entryDx=0;entryDy=0;exitX=1;exitY=0.5;exitDx=0;exitDy=0;" edge="1" parent="ma8efBDJHLA7c4171GIG-113" source="ma8efBDJHLA7c4171GIG-115" target="ma8efBDJHLA7c4171GIG-115">
          <mxGeometry width="50" height="50" relative="1" as="geometry">
            <mxPoint x="-220" y="19" as="sourcePoint" />
            <mxPoint x="30" y="-100" as="targetPoint" />
          </mxGeometry>
        </mxCell>
        <mxCell id="ma8efBDJHLA7c4171GIG-115" value="&lt;font style=&quot;font-size: 18px;&quot;&gt;j&lt;/font&gt;" style="text;html=1;strokeColor=none;fillColor=none;align=center;verticalAlign=middle;whiteSpace=wrap;rounded=0;" vertex="1" parent="ma8efBDJHLA7c4171GIG-113">
          <mxGeometry width="20" height="30" as="geometry" />
        </mxCell>
        <mxCell id="ma8efBDJHLA7c4171GIG-116" value="" style="curved=1;endArrow=classic;html=1;rounded=0;exitX=0.5;exitY=1;exitDx=0;exitDy=0;entryX=0.5;entryY=1;entryDx=0;entryDy=0;" edge="1" parent="ma8efBDJHLA7c4171GIG-113">
          <mxGeometry width="50" height="50" relative="1" as="geometry">
            <mxPoint x="20" as="sourcePoint" />
            <mxPoint x="60" as="targetPoint" />
            <Array as="points">
              <mxPoint x="30" y="20" />
              <mxPoint x="50" y="20" />
            </Array>
          </mxGeometry>
        </mxCell>
        <mxCell id="ma8efBDJHLA7c4171GIG-117" value="87" style="rounded=0;whiteSpace=wrap;html=1;fillColor=none;" vertex="1" parent="1">
          <mxGeometry x="120" y="760" width="440" height="40" as="geometry" />
        </mxCell>
        <mxCell id="ma8efBDJHLA7c4171GIG-118" value="6" style="rounded=0;whiteSpace=wrap;html=1;fillColor=none;" vertex="1" parent="1">
          <mxGeometry x="120" y="760" width="40" height="40" as="geometry" />
        </mxCell>
        <mxCell id="ma8efBDJHLA7c4171GIG-119" value="2" style="rounded=0;whiteSpace=wrap;html=1;fillColor=none;" vertex="1" parent="1">
          <mxGeometry x="160" y="760" width="40" height="40" as="geometry" />
        </mxCell>
        <mxCell id="ma8efBDJHLA7c4171GIG-120" value="12" style="rounded=0;whiteSpace=wrap;html=1;fillColor=none;" vertex="1" parent="1">
          <mxGeometry x="200" y="760" width="40" height="40" as="geometry" />
        </mxCell>
        <mxCell id="ma8efBDJHLA7c4171GIG-121" value="45" style="rounded=0;whiteSpace=wrap;html=1;fillColor=none;" vertex="1" parent="1">
          <mxGeometry x="240" y="760" width="40" height="40" as="geometry" />
        </mxCell>
        <mxCell id="ma8efBDJHLA7c4171GIG-122" value="34" style="rounded=0;whiteSpace=wrap;html=1;fillColor=none;" vertex="1" parent="1">
          <mxGeometry x="280" y="760" width="40" height="40" as="geometry" />
        </mxCell>
        <mxCell id="ma8efBDJHLA7c4171GIG-123" value="24" style="rounded=0;whiteSpace=wrap;html=1;fillColor=none;" vertex="1" parent="1">
          <mxGeometry x="360" y="760" width="40" height="40" as="geometry" />
        </mxCell>
        <mxCell id="ma8efBDJHLA7c4171GIG-124" value="11" style="rounded=0;whiteSpace=wrap;html=1;fillColor=none;" vertex="1" parent="1">
          <mxGeometry x="440" y="760" width="40" height="40" as="geometry" />
        </mxCell>
        <mxCell id="ma8efBDJHLA7c4171GIG-125" value="90" style="rounded=0;whiteSpace=wrap;html=1;fillColor=none;" vertex="1" parent="1">
          <mxGeometry x="520" y="760" width="40" height="40" as="geometry" />
        </mxCell>
        <mxCell id="ma8efBDJHLA7c4171GIG-126" value="23" style="rounded=0;whiteSpace=wrap;html=1;fillColor=none;" vertex="1" parent="1">
          <mxGeometry x="400" y="760" width="40" height="40" as="geometry" />
        </mxCell>
        <mxCell id="ma8efBDJHLA7c4171GIG-127" value="65" style="rounded=0;whiteSpace=wrap;html=1;fillColor=none;" vertex="1" parent="1">
          <mxGeometry x="480" y="760" width="40" height="40" as="geometry" />
        </mxCell>
      </root>
    </mxGraphModel>
  </diagram>
</mxfile>
